General                          : ChattChitto RG - Movies [R2L]
==========
Complete name                    : London Boulevard 2010 720p BRRip H264 [ChattChitto RG]
Format                           : MPEG-4
Format profile                   : Base Media
Codec ID                         : isom
File size                        : 1.98 GiB
Duration                         : 1h 43mn
Overall bit rate                 : 2 751 Kbps
Encoded date                     : UTC 2011-04-05 16:30:18

Video
==========
ID                               : 1
Format                           : AVC
Format/Info                      : Advanced Video Codec
Format profile                   : High@L4.1
Format settings, CABAC           : Yes
Format settings, ReFrames        : 4 frames
Codec ID                         : avc1
Codec ID/Info                    : Advanced Video Coding
Duration                         : 1h 43mn
Bit rate mode                    : Variable
Bit rate                         : 2 400 Kbps
Maximum bit rate                 : 19.1 Mbps
Width                            : 1 280 pixels
Height                           : 688 pixels
Display aspect ratio             : 1.860
Frame rate mode                  : Constant
Frame rate                       : 23.976 fps
Color space                      : YUV
Chroma subsampling               : 4:2:0
Bit depth                        : 8 bits
Scan type                        : Progressive
Bits/(Pixel*Frame)               : 0.114
Stream size                      : 1.73 GiB (87%)
Writing library                  : x264 core 114 r1913 5fd3dce
Encoded date                     : UTC 2011-04-05 07:30:54

Audio
==========
ID                               : 2
Format                           : AAC
Format/Info                      : Advanced Audio Codec
Format profile                   : LC
Codec ID                         : 40
Duration                         : 1h 43mn
Bit rate mode                    : Variable
Bit rate                         : 352.8 Kbps
Maximum bit rate                 : 500 Kbps
Channel(s)                       : 6 channels
Channel positions                : Front: L C R, Side: L R, LFE
Sampling rate                    : 48.0 KHz
Compression mode                 : Lossy
Stream size                      : 257 MiB (13%)
Encoded date                     : UTC 2011-04-05 16:30:46

Subtitles                        : English | French | Spanish


----------------------------------------------------
IMDB Link: http://www.imdb.com/title/tt1213648/
----------------------------------------------------



Screen Shots:
==============    
http://chattchitto.net/chattchittorg/movies/brrip/2011/london_boulevard/1.png 
http://chattchitto.net/chattchittorg/movies/brrip/2011/london_boulevard/2.png 
http://chattchitto.net/chattchittorg/movies/brrip/2011/london_boulevard/3.png 
http://chattchitto.net/chattchittorg/movies/brrip/2011/london_boulevard/4.png 
http://chattchitto.net/chattchittorg/movies/brrip/2011/london_boulevard/5.png 
http://chattchitto.net/chattchittorg/movies/brrip/2011/london_boulevard/6.png 
http://chattchitto.net/chattchittorg/movies/brrip/2011/london_boulevard/7.png



ScreenShots Comparison:
=========================  
http://screenshotcomparison.com/comparison/41497



Plot:
======
Fresh out of prison, Mitchell lands a legitimate job as a handyman for a rich actress who's eager to reward him with cash, cars and sex. But Mitchell can never truly escape his violent past or the dangerous world of loan sharks, druggies and other bottomfeeders.



Release Info:
==============
original name .... : London Boulevard 2010 720p BRRip H264 [ChattChitto RG]
ripper.............: CHD
encoder............: Recalled2Life (R2L)
video codec........: H264/.MP4
video bitrate......: 2400 Kbps
audio codec........: AAC-LC
aspect ratio.......: 1.860
resolution.........: 1280 x 688
genre..............: Crime | Romance
runtime............: 1h 43mn
language...........: English
rating.............: R
subtitles..........: English | French | Spanish
sample.............: Yes
2ch Audio..........: 2ch Audio for XBox Viewers
Compatibility .....: XBox | PS3 | WD Live



Source:
========
London.Boulevard.2010.BluRay.720p.DTS.x264-CHD  THANKS!!



Notes:
=======
ChattChitto RG Encourages Burning this Film with ConvertXtoDVD and Playing with VLC media player.
XBox 360 | PS3 | WD Live - Compatible 
Enhanced for your viewing pleasure ;)